<svg xmlns="http://www.w3.org/2000/svg" width="1200" height="630" viewBox="0 0 1200 630">
  <defs>
    <linearGradient id="bg" x1="0" y1="0" x2="1" y2="1">
      <stop offset="0%" stop-color="#f8f1e8"/>
      <stop offset="55%" stop-color="#f1e4d3"/>
      <stop offset="100%" stop-color="#eadbc8"/>
    </linearGradient>
    <radialGradient id="glow" cx="0.78" cy="0.2" r="0.5">
      <stop offset="0%" stop-color="#8b5e34" stop-opacity="0.35"/>
      <stop offset="100%" stop-color="#8b5e34" stop-opacity="0"/>
    </radialGradient>
  </defs>
  <rect width="100%" height="100%" fill="url(#bg)"/>
  <rect width="100%" height="100%" fill="url(#glow)"/>

  <g opacity="0.35" stroke="#b9aa96" stroke-width="1">
    <path d="M0 120 H1200" />
    <path d="M0 220 H1200" />
    <path d="M0 320 H1200" />
    <path d="M0 420 H1200" />
    <path d="M0 520 H1200" />
  </g>

  <g transform="translate(90 110)">
    <rect x="0" y="0" width="340" height="48" rx="24" fill="#8b5e34"/>
    <text x="170" y="32" text-anchor="middle" font-size="22" font-family="'Zen Kaku Gothic New', 'Noto Sans JP', sans-serif" fill="#ffffff">テーマ：文化</text>
  </g>

  <g transform="translate(90 220)">
    <text x="0" y="0" font-size="52" font-family="'Shippori Mincho', 'Noto Serif JP', serif" fill="#1f1a14" font-weight="700">世界の歴史タイムライン</text>
    <text x="0" y="48" font-size="24" font-family="'Zen Kaku Gothic New', 'Noto Sans JP', sans-serif" fill="#5f5a52">テーマ別に時代の流れを可視化する</text>
  </g>

  <g transform="translate(90 410)">
    <rect x="0" y="0" width="520" height="90" rx="16" fill="#fff7ec" stroke="#d5c4b1"/>
    <text x="24" y="38" font-size="20" font-family="'Zen Kaku Gothic New', 'Noto Sans JP', sans-serif" fill="#4b3f35">ピンチでズーム・タップで詳細</text>
    <text x="24" y="66" font-size="16" font-family="'Zen Kaku Gothic New', 'Noto Sans JP', sans-serif" fill="#7b6f61">同時代のつながりを一瞬で比較</text>
  </g>

  <g transform="translate(90 560)">
    <text x="0" y="0" font-size="16" font-family="'Zen Kaku Gothic New', 'Noto Sans JP', sans-serif" fill="#8a7f72">History Timeline Lab / 2025-12-28</text>
  </g>

  <circle cx="1000" cy="470" r="120" fill="#8b5e34" opacity="0.18"/>
  <circle cx="1045" cy="430" r="64" fill="#8b5e34" opacity="0.28"/>
  <circle cx="1088" cy="400" r="24" fill="#8b5e34" opacity="0.45"/>
</svg>
